<svg width="20" height="20" viewBox="0 0 20 20" fill="none" xmlns="http://www.w3.org/2000/svg">
<path d="M19.8712 10.3096L12.0444 18.8593C12.0049 18.9038 11.9576 18.9392 11.9053 18.9634C11.853 18.9875 11.7968 19 11.7401 19C11.6833 19 11.6271 18.9875 11.5748 18.9634C11.5225 18.9392 11.4752 18.9038 11.4357 18.8593C11.3949 18.8161 11.3625 18.7644 11.3404 18.7073C11.3183 18.6502 11.3069 18.5888 11.3069 18.5268C11.3069 18.4648 11.3183 18.4034 11.3404 18.3463C11.3625 18.2891 11.3949 18.2375 11.4357 18.1943L18.5124 10.4521H0.434818C0.319497 10.4521 0.208899 10.4021 0.127355 10.313C0.0458111 10.2239 0 10.1031 0 9.97713C0 9.85116 0.0458111 9.73034 0.127355 9.64127C0.208899 9.55219 0.319497 9.50215 0.434818 9.50215H18.5124L11.4357 1.75997C11.3729 1.6685 11.3424 1.55536 11.3498 1.44131C11.3573 1.32726 11.4021 1.21997 11.4761 1.13912C11.5501 1.05827 11.6483 1.0093 11.7527 1.0012C11.8571 0.99309 11.9607 1.0264 12.0444 1.095L19.8712 9.64464C19.9119 9.68781 19.9443 9.73949 19.9665 9.79661C19.9886 9.85372 20 9.91511 20 9.97713C20 10.0391 19.9886 10.1005 19.9665 10.1577C19.9443 10.2148 19.9119 10.2664 19.8712 10.3096Z" fill="#0B1D2F"/>
</svg>
