<svg width="36" height="36" viewBox="0 0 36 36" fill="none" xmlns="http://www.w3.org/2000/svg">
<path d="M18.0006 2.89282C24.9241 2.89282 30.5363 8.50496 30.5363 15.4285C30.5363 20.7257 26.8141 26.4985 19.4663 32.8088C19.0577 33.1598 18.5368 33.3526 17.9981 33.3521C17.4595 33.3516 16.9389 33.1579 16.531 32.8063L16.045 32.3845C9.02241 26.2388 5.46484 20.6074 5.46484 15.4285C5.46484 8.50496 11.077 2.89282 18.0006 2.89282ZM18.0006 10.6071C16.7218 10.6071 15.4955 11.1151 14.5913 12.0193C13.6871 12.9235 13.1791 14.1498 13.1791 15.4285C13.1791 16.7073 13.6871 17.9336 14.5913 18.8378C15.4955 19.742 16.7218 20.25 18.0006 20.25C19.2793 20.25 20.5056 19.742 21.4098 18.8378C22.314 17.9336 22.822 16.7073 22.822 15.4285C22.822 14.1498 22.314 12.9235 21.4098 12.0193C20.5056 11.1151 19.2793 10.6071 18.0006 10.6071Z" fill="white"/>
</svg>
