<svg width="20" height="20" viewBox="0 0 20 20" fill="none" xmlns="http://www.w3.org/2000/svg">
<path fill-rule="evenodd" clip-rule="evenodd" d="M20 10C20 15.5228 15.5228 20 10 20C4.47715 20 0 15.5228 0 10C0 4.47715 4.47715 0 10 0C15.5228 0 20 4.47715 20 10ZM6.90278 13.1364C6.57201 12.074 6.40909 11.0338 6.40909 10C6.40909 9.26272 6.49195 8.52221 6.65946 7.77273H13.3405C13.508 8.52221 13.5909 9.26272 13.5909 10C13.5909 11.0338 13.428 12.074 13.0972 13.1364H6.90278ZM5.85915 13.1364C5.56035 12.0887 5.40909 11.047 5.40909 10C5.40909 9.25625 5.48542 8.51516 5.63674 7.77273H1.27772C1.09638 8.48502 1 9.23126 1 10C1 11.1031 1.19844 12.1598 1.56156 13.1364H5.85915ZM2.00474 14.1364H6.18823C6.77142 15.7019 7.67837 17.2885 8.89677 18.9331C5.89028 18.5656 3.34181 16.7156 2.00474 14.1364ZM7.261 14.1364H12.739C12.1449 15.6055 11.236 17.125 9.99999 18.7351C8.76398 17.125 7.85512 15.6055 7.261 14.1364ZM13.8118 14.1364C13.2286 15.7019 12.3216 17.2885 11.1032 18.9331C14.1097 18.5656 16.6582 16.7156 17.9953 14.1364H13.8118ZM14.1408 13.1364H18.4384C18.8016 12.1598 19 11.1031 19 10C19 9.23126 18.9036 8.48502 18.7223 7.77273H14.3633C14.5146 8.51516 14.5909 9.25625 14.5909 10C14.5909 11.047 14.4396 12.0887 14.1408 13.1364ZM13.0685 6.77273H6.93147C7.49176 5.02169 8.5073 3.20931 9.99999 1.26491C11.4927 3.20931 12.5082 5.02169 13.0685 6.77273ZM11.1032 1.06694C12.558 3.03056 13.5688 4.91152 14.1146 6.77273H18.4041C17.2331 3.72535 14.4523 1.47628 11.1032 1.06694ZM1.59593 6.77273H5.88544C6.43123 4.91152 7.44199 3.03056 8.89677 1.06694C5.54765 1.47629 2.7669 3.72536 1.59593 6.77273Z" fill="#52A6DD"/>
</svg>
