<svg width="198" height="43" viewBox="0 0 198 43" fill="none" xmlns="http://www.w3.org/2000/svg">
<path d="M69.4768 20.2358C69.4768 19.8192 69.2828 19.4025 68.9226 19.1386C68.313 18.6803 67.4679 18.8053 67.0107 19.4164C57.5899 32.0414 49.3466 38.5692 41.8238 39.3747C33.9408 40.2219 27.4986 34.5831 21.2504 29.1386C18.3964 26.6525 15.4455 24.0692 12.3976 22.1525C10.7212 21.0969 9.14186 20.3192 7.59019 19.7775C5.83071 19.1664 4.05737 18.8608 2.33946 18.8608C1.59133 18.8608 0.967896 19.4719 0.967896 20.2358C0.967896 20.9858 1.57748 21.6108 2.33946 21.6108C8.47685 21.6108 13.8107 26.2775 19.4632 31.2081C22.7189 34.0553 26.0855 36.9997 29.743 39.1108C33.9824 41.5692 38.0278 42.5414 42.1148 42.1108C44.0821 41.9025 46.0909 41.3608 48.0998 40.4858C50.1917 39.5831 52.3669 38.2914 54.542 36.6525C56.8002 34.9581 59.1554 32.8192 61.5383 30.3053C64.0044 27.6942 66.5951 24.5831 69.2135 21.0692C69.3936 20.8053 69.4768 20.5136 69.4768 20.2358Z" fill="#074F99"/>
<path d="M69.4768 20.2361C69.4768 19.9166 69.3659 19.6111 69.1581 19.3472C68.6732 18.7778 67.8143 18.7083 67.2324 19.1944C60.7071 24.7639 55.11 26.9861 49.6376 26.1805C44.7748 25.4722 40.6047 22.5 36.1852 19.3472C31.6964 16.1528 27.0553 12.8472 21.4859 11.9722C18.438 11.5 15.4178 11.7778 12.2729 12.8472C8.80935 14.0139 5.2904 16.0833 1.4805 19.1805C0.898627 19.6528 0.801646 20.5139 1.28654 21.1111C1.75758 21.6944 2.61654 21.7916 3.21227 21.3055C9.73759 15.9861 15.584 13.8194 21.0703 14.6805C26.0024 15.4583 30.1725 18.4305 34.6058 21.5833C39.0946 24.7778 43.7357 28.0833 49.2497 28.8889C52.2699 29.3333 55.2485 28.9861 58.3796 27.8611C61.7877 26.625 65.2651 24.4722 69.0196 21.2778C69.3105 21 69.4768 20.625 69.4768 20.2361Z" fill="#0E80C0"/>
<path d="M69.4768 20.2359C69.4768 19.8054 69.2828 19.3887 68.8949 19.1248C64.4061 15.9443 60.3746 13.7082 56.5508 12.3193C53.0596 11.0415 49.8177 10.4859 46.6312 10.6109C43.9574 10.722 41.2974 11.3332 38.485 12.472C36.019 13.472 33.6776 14.7776 31.4055 16.0415C23.661 20.347 16.3599 24.4165 2.83823 18.9721C2.14552 18.6943 1.34198 19.0276 1.06489 19.7359C0.78781 20.4443 1.12031 21.2359 1.82687 21.5137C5.33198 22.9165 8.56 23.7776 11.7049 24.1248C14.5311 24.4443 17.205 24.3332 19.8788 23.8054C24.7971 22.8332 28.8286 20.597 32.7217 18.4304C41.8931 13.3332 49.8039 8.93039 67.3017 21.3609C67.9112 21.7915 68.7702 21.6526 69.1997 21.0415C69.3936 20.7776 69.4768 20.5137 69.4768 20.2359Z" fill="#53C1B0"/>
<path d="M69.4767 20.2361C69.4767 19.9444 69.3936 19.6666 69.1997 19.4166C64.4754 13.1389 60.236 8.55551 56.2183 5.41663C52.45 2.47218 48.931 0.847182 45.4675 0.430516C43.708 0.222182 41.9347 0.333293 40.189 0.763848C38.6235 1.15274 37.058 1.77774 35.4093 2.6944C32.4168 4.34718 29.6322 6.65274 26.6812 9.08329C19.9204 14.6805 12.924 20.4583 2.54726 18.8888C1.79913 18.7777 1.10643 19.2916 0.995592 20.0416C0.884759 20.7916 1.39736 21.4861 2.14549 21.5972C13.7276 23.3472 21.5275 16.8888 28.4268 11.1944C34.1209 6.48607 39.0391 2.43051 45.1627 3.15273C48.1275 3.49996 51.2031 4.95829 54.5558 7.58329C58.3795 10.5694 62.4665 14.9861 67.0384 21.0694C67.4956 21.6666 68.3407 21.7916 68.9503 21.3333C69.2966 21.0555 69.4767 20.6527 69.4767 20.2361Z" fill="#52A6DD"/>
<path d="M83.5249 11.3887H92.9457C96.3539 11.3887 98.0995 13.5692 98.0995 15.9581C98.0995 18.222 96.7002 19.722 95.01 20.0692C96.908 20.3609 98.4458 22.222 98.4458 24.4859C98.4458 27.1803 96.6448 29.3331 93.2367 29.3331H83.5249V11.3887ZM92.1006 18.597C93.3891 18.597 94.1926 17.7637 94.1926 16.6109C94.1926 15.5137 93.3891 14.6526 92.1006 14.6526H87.3209V18.6109H92.1006V18.597ZM92.2392 26.0692C93.6939 26.0692 94.5528 25.2359 94.5528 23.9442C94.5528 22.8192 93.7493 21.847 92.2392 21.847H87.3348V26.0692H92.2392Z" fill="white"/>
<path d="M101.3 11.3887H105.11V29.3192H101.3V11.3887Z" fill="white"/>
<path d="M112.785 14.7498H107.548V11.3887H121.818V14.7498H116.609V29.3192H112.771V14.7498H112.785Z" fill="white"/>
<path d="M130.865 22.9026H128.08V29.3331H124.27V11.3887H132.638C136.365 11.3887 138.651 13.8331 138.651 17.1665C138.651 20.3331 136.669 22.0276 134.73 22.4859L138.748 29.3192H134.37L130.865 22.9026ZM132.07 14.6665H128.08V19.6109H132.07C133.594 19.6109 134.758 18.6387 134.758 17.1387C134.758 15.6387 133.608 14.6665 132.07 14.6665Z" fill="white"/>
<path d="M141.518 11.3887H145.328V29.3192H141.518V11.3887Z" fill="white"/>
<path d="M146.963 11.3887H151.313L156.273 25.1803L161.205 11.3887H165.555L158.656 29.3192H153.876L146.963 11.3887Z" fill="white"/>
<path d="M167.218 11.3887H179.881V14.6665H171.028V18.5692H179.687V21.847H171.028V26.0137H179.881V29.3192H167.218V11.3887Z" fill="white"/>
<path d="M189.454 22.9026H186.669V29.3331H182.859V11.3887H191.227C194.954 11.3887 197.24 13.8331 197.24 17.1665C197.24 20.3331 195.259 22.0276 193.319 22.4859L197.337 29.3192H192.959L189.454 22.9026ZM190.659 14.6665H186.669V19.6109H190.659C192.183 19.6109 193.347 18.6387 193.347 17.1387C193.333 15.6387 192.183 14.6665 190.659 14.6665Z" fill="white"/>
</svg>
